<?xml version="1.0" standalone="no"?>
<!DOCTYPE svg PUBLIC "-//W3C//DTD SVG 20010904//EN"
 "http://www.w3.org/TR/2001/REC-SVG-20010904/DTD/svg10.dtd">
<svg version="1.0" xmlns="http://www.w3.org/2000/svg"
 width="853.000000pt" height="390.000000pt" viewBox="0 0 853.000000 390.000000"
 preserveAspectRatio="xMidYMid meet">
<metadata>
Created by potrace 1.15, written by Peter Selinger 2001-2017
</metadata>
<g transform="translate(0.000000,390.000000) scale(0.100000,-0.100000)"
fill="#000000" stroke="none">
<path d="M0 1950 l0 -1950 4265 0 4265 0 0 1950 0 1950 -4265 0 -4265 0 0
-1950z m4287 1413 c-4 -3 -2 -12 4 -20 6 -7 8 -13 4 -13 -4 0 -2 -7 5 -15 7
-8 9 -15 5 -15 -4 0 -2 -7 5 -15 7 -8 9 -15 5 -15 -4 0 -2 -7 5 -15 7 -8 9
-15 5 -15 -4 0 -2 -7 5 -15 7 -8 9 -15 5 -15 -4 0 -2 -7 5 -15 7 -8 9 -15 5
-15 -4 0 -2 -7 5 -15 7 -8 9 -15 5 -15 -4 0 -2 -7 5 -15 7 -8 9 -15 5 -15 -4
0 -2 -7 5 -15 7 -8 9 -15 5 -15 -4 0 -2 -7 5 -15 7 -8 9 -15 5 -15 -4 0 -2 -7
5 -15 7 -8 9 -15 5 -15 -4 0 -2 -7 5 -15 7 -8 9 -15 5 -15 -4 0 -2 -7 5 -15 7
-8 9 -15 5 -15 -4 0 -2 -7 5 -15 7 -8 9 -15 5 -15 -4 0 -2 -7 5 -15 7 -8 9
-15 5 -15 -4 0 -2 -7 5 -15 7 -8 9 -15 5 -15 -4 0 -2 -7 5 -15 7 -8 9 -15 5
-15 -4 0 -2 -7 5 -15 7 -8 9 -15 5 -15 -4 0 -2 -7 5 -15 7 -8 9 -15 5 -15 -4
0 -2 -7 5 -15 7 -8 9 -15 5 -15 -4 0 -2 -7 5 -15 7 -8 9 -15 5 -15 -4 0 -2 -6
4 -13 6 -8 7 -17 3 -22 -4 -4 0 -6 8 -3 8 3 16 10 16 16 1 7 3 14 4 17 1 3 4
10 5 15 1 6 4 12 5 15 1 3 4 10 5 15 1 6 4 12 5 15 1 3 4 10 5 15 1 6 4 12 5
15 1 3 4 10 5 15 1 6 4 12 5 15 1 3 4 10 5 15 1 6 4 12 5 15 1 3 4 10 5 15 1
6 4 12 5 15 1 3 4 10 5 15 1 6 4 12 5 15 1 3 4 10 5 15 1 6 4 12 5 15 1 3 4
10 5 15 1 6 4 12 5 15 1 3 4 10 5 15 1 6 3 11 5 13 1 1 3 9 5 17 9 46 40 130
48 130 5 0 7 -7 3 -15 -3 -8 -2 -15 2 -15 7 0 39 -88 47 -130 2 -8 4 -16 5
-17 2 -2 4 -7 5 -13 1 -5 4 -12 5 -15 1 -3 4 -9 5 -15 1 -5 4 -12 5 -15 1 -3
4 -9 5 -15 1 -5 4 -12 5 -15 1 -3 4 -9 5 -15 1 -5 4 -12 5 -15 1 -3 4 -9 5
-15 1 -5 4 -12 5 -15 1 -3 4 -9 5 -15 1 -5 4 -12 5 -15 1 -3 4 -9 5 -15 1 -5
4 -12 5 -15 1 -3 4 -9 5 -15 1 -5 4 -12 5 -15 1 -3 4 -9 5 -15 1 -5 4 -12 5
-15 1 -3 4 -9 5 -15 1 -5 4 -12 5 -15 1 -3 4 -9 5 -15 1 -5 4 -13 5 -17 1 -5
2 -11 1 -15 0 -5 4 -8 10 -8 6 0 9 -7 5 -15 -3 -8 -1 -15 5 -15 6 0 9 -7 5
-15 -3 -8 -1 -15 5 -15 6 0 9 -7 5 -15 -3 -8 -1 -15 5 -15 6 0 9 -7 5 -15 -3
-8 -1 -15 5 -15 6 0 9 -6 6 -14 -3 -8 -2 -16 2 -18 4 -2 20 -40 35 -85 l27
-82 200 -3 200 -3 104 105 c69 70 112 106 129 108 15 2 26 -2 26 -8 0 -6 5 -8
10 -5 6 3 10 1 10 -6 0 -7 3 -9 6 -6 4 3 16 1 28 -5 11 -7 24 -11 29 -10 4 1
7 -3 7 -10 0 -6 3 -8 6 -5 4 3 16 1 28 -5 11 -7 24 -11 29 -10 4 1 7 -3 7 -10
0 -6 3 -8 6 -5 4 3 16 1 28 -5 11 -7 24 -11 29 -10 4 1 7 -3 7 -10 0 -6 3 -8
6 -5 4 3 16 1 28 -5 11 -7 24 -11 29 -10 4 1 7 -3 7 -10 0 -6 3 -8 6 -5 4 3
16 1 28 -5 11 -7 24 -11 29 -10 4 1 7 -3 7 -10 0 -6 3 -8 6 -5 4 3 16 1 28 -5
11 -7 24 -11 29 -10 4 1 7 -3 7 -10 0 -6 3 -9 6 -5 11 11 64 -23 64 -41 0 -23
-38 -65 -51 -57 -5 4 -9 1 -9 -5 0 -6 -4 -9 -9 -6 -5 4 -11 1 -13 -4 -2 -6
-13 -12 -26 -13 -12 0 -22 -5 -22 -9 0 -4 -3 -7 -7 -6 -5 1 -18 -3 -29 -10
-12 -6 -24 -8 -28 -5 -3 3 -6 1 -6 -5 0 -7 -3 -11 -7 -10 -5 1 -18 -3 -29 -10
-12 -6 -24 -8 -28 -5 -3 3 -6 1 -6 -5 0 -7 -3 -11 -7 -10 -5 1 -18 -3 -29 -10
-12 -6 -24 -8 -28 -5 -3 3 -6 1 -6 -6 0 -7 -4 -10 -9 -6 -5 3 -12 1 -16 -5 -4
-6 -11 -8 -16 -5 -5 4 -9 1 -9 -5 0 -6 -4 -9 -9 -6 -5 4 -11 1 -13 -4 -2 -6
-13 -12 -26 -13 -12 0 -22 -5 -22 -10 0 -4 -4 -6 -9 -3 -5 4 -11 1 -13 -4 -2
-6 -13 -12 -26 -13 -12 0 -22 -5 -22 -9 0 -4 -7 -8 -15 -8 -8 0 -15 5 -15 11
0 5 -4 8 -8 5 -5 -3 -57 44 -117 104 l-108 110 -343 0 -343 0 19 -55 c10 -30
16 -55 13 -55 -3 0 0 -7 7 -15 7 -8 9 -15 6 -15 -4 0 -4 -6 1 -12 4 -7 8 -16
9 -20 1 -5 2 -9 4 -10 1 -2 3 -11 5 -20 3 -17 -24 -18 -451 -18 -397 0 -454 2
-454 15 0 8 4 15 10 15 5 0 7 7 4 15 -4 8 -1 15 5 15 6 0 8 7 5 15 -4 8 -1 15
5 15 6 0 10 3 10 8 -1 4 0 10 1 15 1 4 4 12 5 17 1 6 4 12 5 15 1 3 4 10 5 15
1 6 3 11 4 13 2 1 4 12 7 25 l4 22 -333 0 -333 0 -121 -122 c-88 -90 -128
-123 -145 -122 -13 0 -22 6 -20 12 1 7 -2 12 -8 12 -22 0 -6 21 85 111 52 51
95 96 95 101 0 4 -15 8 -33 8 -29 0 -48 -15 -154 -122 -125 -127 -156 -145
-175 -102 -8 17 5 34 86 114 53 51 96 97 96 102 0 4 -14 8 -30 8 -25 0 -50
-20 -152 -122 -128 -127 -160 -146 -180 -103 -8 18 6 35 106 135 l116 114
-115 116 c-63 64 -115 122 -115 128 0 15 36 52 50 52 6 0 10 -5 10 -12 0 -6 3
-8 7 -4 9 9 144 -125 137 -136 -3 -5 0 -7 8 -6 7 2 12 -3 10 -10 -1 -6 4 -11
10 -10 7 2 12 -3 10 -10 -1 -6 4 -11 10 -10 7 2 12 -3 10 -10 -1 -6 4 -11 10
-10 7 2 12 -2 11 -8 -1 -5 15 -11 35 -12 l37 -3 -83 84 c-45 46 -79 86 -76 90
4 4 2 7 -4 7 -7 0 -12 5 -12 10 0 14 37 50 52 50 6 0 66 -54 133 -120 88 -87
128 -120 145 -120 21 0 14 11 -58 83 -45 46 -79 86 -76 90 4 4 2 7 -4 7 -7 0
-12 5 -12 10 0 14 37 50 52 50 6 0 66 -54 132 -120 l121 -119 186 -3 c146 -2
185 0 182 10 -3 6 0 12 6 12 6 0 8 7 5 15 -4 8 -1 15 5 15 6 0 10 3 10 8 -1 4
0 10 1 15 1 4 4 12 5 17 1 6 4 12 5 15 1 3 4 10 5 15 1 6 4 12 5 15 1 3 4 10
5 15 1 6 4 12 5 15 1 3 4 10 5 15 1 6 4 12 5 15 1 3 4 10 5 15 1 6 4 12 5 15
1 3 4 10 5 15 1 6 4 12 5 15 1 3 4 10 5 15 1 6 4 12 5 15 1 3 4 10 5 15 1 6 4
12 5 15 1 3 4 10 5 15 1 6 4 12 5 15 1 3 4 10 5 15 1 6 4 12 5 15 1 3 4 10 5
15 1 6 4 12 5 15 1 3 4 10 5 15 1 6 4 12 5 15 1 3 4 10 5 15 1 6 4 12 5 15 1
3 3 8 4 13 1 4 6 22 10 40 4 17 12 32 16 32 5 0 7 7 4 15 -4 8 -1 15 5 15 6 0
8 7 5 15 -4 8 -1 15 5 15 6 0 8 7 5 15 -4 8 -1 15 5 15 6 0 8 7 5 15 -4 8 -1
15 5 15 6 0 10 3 10 8 -1 4 0 10 1 15 1 4 4 12 5 17 1 6 4 12 5 15 1 3 4 10 5
15 1 6 4 12 5 15 1 3 4 10 5 15 1 6 4 12 5 15 1 3 4 10 5 15 1 6 4 12 5 15 1
3 3 9 4 14 0 5 4 12 9 15 4 3 5 3 2 -1 -3 -3 0 -12 6 -20 6 -7 8 -13 4 -13 -4
0 -2 -7 5 -15 7 -8 9 -15 5 -15 -4 0 -2 -7 5 -15 7 -8 9 -15 5 -15 -4 0 -2 -7
5 -15 7 -8 9 -15 5 -15 -4 0 -2 -7 5 -15 7 -8 9 -15 5 -15 -4 0 -2 -7 5 -15 7
-8 9 -15 5 -15 -4 0 -2 -7 5 -15 7 -8 9 -15 5 -15 -4 0 -2 -7 5 -15 7 -8 9
-15 5 -15 -4 0 -2 -7 5 -15 7 -8 9 -15 5 -15 -4 0 -2 -7 5 -15 7 -8 9 -15 5
-15 -4 0 -2 -6 4 -13 6 -8 8 -17 4 -20 -3 -4 -1 -7 6 -7 8 0 11 -7 7 -15 -3
-8 -1 -15 5 -15 6 0 9 -7 5 -15 -3 -8 -1 -15 5 -15 6 0 9 -7 5 -15 -3 -8 -1
-15 5 -15 6 0 9 -7 6 -15 -4 -8 -1 -17 5 -21 7 -4 8 -3 4 4 -4 7 -3 12 3 12 6
0 8 7 5 15 -4 8 -1 15 5 15 6 0 8 7 5 15 -4 8 -1 15 5 15 6 0 8 7 5 15 -4 8
-1 15 5 15 6 0 8 7 5 15 -4 8 -1 15 5 15 6 0 8 7 5 15 -4 8 -1 15 5 15 6 0 8
7 5 15 -4 8 -1 15 5 15 6 0 8 7 5 15 -4 8 -1 15 5 15 6 0 8 7 5 15 -4 8 -1 15
5 15 6 0 8 7 5 15 -4 8 -1 15 5 15 6 0 8 7 5 15 -4 8 -1 15 5 15 6 0 8 7 5 15
-4 8 -1 15 5 15 6 0 8 7 5 15 -4 8 -1 15 5 15 6 0 8 7 5 15 -4 8 -1 15 5 15 6
0 10 3 10 8 -1 4 0 10 1 15 1 4 4 12 5 17 1 6 4 12 5 15 1 3 4 10 5 15 1 6 4
12 5 15 1 3 4 10 5 15 1 6 4 12 5 15 1 3 4 10 5 15 1 6 4 12 5 15 1 3 4 10 5
15 1 6 4 12 5 15 1 3 4 10 5 15 1 6 4 12 5 15 1 3 4 10 5 15 1 6 4 12 5 15 1
3 4 10 5 15 1 6 3 12 4 15 0 3 6 5 13 5 6 0 8 -3 5 -7z m-2187 -1888 l0 -35
-115 0 -115 0 0 -65 0 -65 90 0 90 0 0 -35 0 -35 -90 0 -90 0 0 -105 0 -105
-45 0 -45 0 0 240 0 240 160 0 160 0 0 -35z m825 -170 l0 -200 38 -3 c35 -3
37 -5 37 -38 l0 -34 -115 0 -115 0 0 35 c0 35 0 35 45 35 l45 0 0 170 0 170
-45 0 c-45 0 -45 0 -45 35 l0 36 77 -3 78 -3 0 -200z m1754 179 c6 -15 9 -35
5 -46 -3 -10 -1 -25 5 -32 6 -7 10 -26 10 -42 1 -49 7 -100 15 -112 10 -17 27
-5 19 13 -3 9 0 22 7 30 6 8 9 19 6 24 -12 18 18 51 45 51 30 0 48 -17 49 -45
0 -20 6 -76 9 -84 4 -16 26 25 28 52 1 18 4 48 7 67 5 36 14 101 18 133 2 13
12 17 46 17 38 0 43 -2 37 -17 -5 -10 -9 -29 -10 -43 -1 -14 -3 -28 -5 -32 -1
-5 -4 -23 -6 -40 -5 -47 -10 -82 -14 -90 -1 -5 -4 -23 -6 -40 -5 -47 -10 -82
-14 -90 -4 -12 -10 -69 -10 -100 -1 -26 -4 -28 -45 -28 -25 0 -46 3 -46 8 -1
4 -3 16 -5 27 -2 11 -6 29 -8 40 -2 11 -6 27 -10 36 -4 9 -6 22 -4 30 2 8 -4
14 -12 14 -8 0 -15 -9 -15 -20 0 -11 -4 -26 -8 -32 -5 -7 -5 -17 -2 -23 3 -5
3 -16 -2 -22 -4 -7 -8 -22 -8 -33 0 -17 -7 -20 -45 -20 -43 0 -45 2 -48 30 -5
56 -9 95 -12 103 -4 8 -9 43 -14 90 -2 17 -5 35 -6 40 -4 8 -9 44 -14 87 -1
17 -6 38 -10 47 -4 9 -5 22 -1 27 3 6 1 20 -5 31 -10 18 -8 20 28 20 32 0 41
-4 51 -26z m1221 -214 l0 -240 -45 0 c-36 0 -45 3 -45 18 -1 16 -1 16 -14 0
-7 -10 -16 -15 -19 -11 -4 3 -7 2 -7 -3 0 -5 -22 -10 -50 -11 -27 0 -50 3 -50
9 0 5 -4 6 -10 3 -5 -3 -10 -1 -10 5 0 6 -4 9 -9 6 -4 -3 -16 3 -26 14 -10 11
-15 20 -11 20 4 0 0 7 -8 16 -9 8 -14 20 -11 25 4 5 2 9 -3 9 -5 0 -9 32 -9
70 0 39 4 70 9 70 5 0 7 4 3 9 -3 5 0 16 7 23 7 8 18 23 25 33 6 11 16 19 22
18 6 -2 11 2 11 8 0 5 5 7 10 4 6 -3 10 -2 10 4 0 14 113 7 118 -8 8 -23 22 2
22 40 0 35 -3 39 -25 39 -22 0 -25 4 -25 35 l0 35 70 0 70 0 0 -240z m-1990
98 c0 -5 5 -6 10 -3 6 3 10 1 10 -5 0 -6 4 -9 9 -6 4 3 16 -3 26 -14 10 -11
15 -20 11 -20 -4 0 0 -7 8 -16 9 -8 14 -20 11 -25 -4 -5 -2 -9 3 -9 6 0 10
-10 11 -22 0 -13 1 -30 1 -38 3 -38 -4 -80 -12 -80 -5 0 -7 -4 -3 -9 3 -5 -2
-17 -11 -25 -8 -9 -12 -16 -8 -16 4 0 -1 -9 -11 -20 -10 -11 -22 -17 -26 -14
-5 3 -9 0 -9 -6 0 -6 -4 -8 -10 -5 -5 3 -10 2 -10 -3 0 -5 -22 -9 -50 -9 -28
0 -50 4 -50 10 0 6 -3 7 -7 4 -3 -4 -12 1 -19 11 -11 14 -13 4 -14 -70 l0 -88
-45 0 -45 0 0 240 0 240 45 0 c36 0 45 -3 45 -17 1 -17 1 -17 14 -1 7 10 16
15 19 11 4 -3 7 -2 7 4 0 6 22 10 50 10 28 0 50 -4 50 -9z m2493 -9 c10 -36
-17 -55 -77 -54 -31 0 -56 -4 -56 -9 0 -5 -3 -6 -6 -3 -4 4 -19 -9 -33 -28
-23 -31 -26 -43 -23 -100 l4 -65 34 0 c32 0 34 -2 34 -35 l0 -35 -115 0 -115
0 0 35 c0 33 2 35 35 35 l35 0 0 105 0 105 -35 0 c-32 0 -35 2 -35 30 l0 30
80 0 c79 0 80 0 80 -26 0 -16 5 -24 13 -21 6 2 11 10 9 16 -1 7 2 10 8 6 5 -3
13 1 16 9 3 9 10 14 14 11 5 -3 11 -2 14 3 2 4 29 8 59 8 45 1 56 -2 60 -17z
m357 8 c0 -4 5 -5 10 -2 6 3 10 1 10 -4 0 -6 4 -10 9 -8 12 3 52 -44 46 -54
-3 -4 -1 -10 5 -14 6 -4 10 -57 10 -131 l0 -124 -45 0 c-35 0 -45 4 -45 16 0
13 -3 14 -13 5 -8 -6 -17 -8 -20 -4 -4 3 -7 1 -7 -6 0 -7 -4 -9 -10 -6 -5 3
-10 2 -10 -3 0 -15 -102 -8 -135 9 -16 8 -29 21 -27 27 1 7 -2 12 -6 12 -8 0
-11 9 -13 43 -2 40 33 103 52 91 5 -3 9 0 9 6 0 6 5 8 10 5 6 -3 10 -1 10 5 0
6 4 9 9 5 5 -3 13 -1 16 5 4 6 16 10 28 9 12 -1 41 -1 65 -1 38 2 42 4 42 28
0 14 -4 23 -10 19 -5 -3 -10 -2 -10 3 0 7 -103 8 -120 2 -3 -1 -8 -2 -12 -1
-5 0 -8 -4 -8 -10 0 -5 -4 -8 -9 -5 -5 4 -11 0 -14 -6 -3 -11 -37 40 -37 56 0
3 14 12 30 21 17 9 30 12 30 8 0 -4 4 -3 10 3 12 12 150 13 150 1z m-4316
-134 l-1 -133 39 0 c37 0 38 -1 38 -35 l0 -35 -115 0 -115 0 0 35 c0 35 0 35
45 35 l45 0 0 100 0 100 -45 0 c-45 0 -45 0 -45 35 l0 36 78 -3 77 -3 -1 -132z
m950 0 l-1 -133 39 0 c37 0 38 -1 38 -35 l0 -35 -115 0 -115 0 0 35 c0 35 0
35 45 35 l45 0 0 100 0 100 -45 0 c-45 0 -45 0 -45 35 l0 36 78 -3 77 -3 -1
-132z m1783 129 c7 -4 15 -19 17 -32 2 -14 5 -27 6 -30 2 -3 2 -8 1 -12 0 -5
4 -8 10 -8 6 0 9 -6 6 -14 -3 -8 -2 -16 3 -18 5 -2 11 -14 14 -28 2 -14 5 -27
6 -30 2 -3 2 -8 1 -12 0 -5 4 -8 10 -8 6 0 9 -7 5 -15 -3 -9 0 -15 9 -15 7 0
16 14 20 30 4 17 11 30 15 30 5 0 7 7 4 15 -4 8 -1 15 5 15 6 0 8 7 5 15 -4 8
-1 15 5 15 6 0 8 7 5 15 -4 8 -1 15 5 15 6 0 8 7 5 15 -4 8 -1 15 5 15 6 0 8
7 5 15 -4 8 -1 15 6 15 6 0 8 5 5 11 -5 7 8 9 37 7 37 -3 43 -6 40 -23 -2 -11
-8 -21 -12 -23 -5 -2 -6 -10 -3 -18 3 -8 0 -14 -6 -14 -6 0 -10 -3 -10 -7 1
-5 1 -10 -1 -13 -1 -3 -4 -16 -6 -30 -3 -14 -9 -26 -14 -28 -5 -2 -6 -10 -3
-18 3 -8 0 -14 -6 -14 -6 0 -10 -3 -10 -7 1 -5 1 -10 -1 -13 -1 -3 -4 -16 -6
-30 -2 -13 -10 -28 -17 -32 -6 -4 -8 -8 -4 -8 5 0 5 -6 0 -12 -4 -7 -8 -16 -9
-20 -1 -5 -2 -9 -3 -10 -2 -2 -5 -14 -7 -28 -2 -13 -10 -28 -17 -32 -6 -4 -8
-8 -4 -8 5 0 5 -6 0 -12 -4 -7 -8 -15 -8 -18 -1 -12 -39 -48 -47 -44 -4 3 -8
1 -8 -4 0 -4 -27 -8 -59 -8 -51 0 -60 2 -65 20 -3 11 -1 25 4 31 6 7 8 14 5
17 -3 3 14 4 37 3 26 -2 48 3 56 11 7 8 10 14 8 14 -3 0 -1 11 4 24 5 15 5 27
-3 35 -6 6 -7 11 -1 11 5 0 3 4 -3 8 -7 4 -15 19 -17 32 -2 14 -5 26 -5 28 -1
1 -1 5 0 8 0 4 -4 10 -10 13 -6 4 -13 18 -15 31 -2 14 -5 26 -5 28 -1 1 -1 5
0 8 0 4 -4 10 -10 13 -6 4 -13 18 -15 31 -2 14 -5 26 -5 28 -1 1 -1 5 0 8 0 4
-4 10 -10 13 -5 4 -12 19 -15 34 -4 25 -2 27 27 27 18 0 38 -4 44 -8z"/>
<path d="M4266 3115 c4 -8 1 -15 -5 -15 -6 0 -8 -7 -5 -15 4 -8 1 -15 -5 -15
-6 0 -8 -7 -5 -15 4 -8 1 -15 -5 -15 -6 0 -10 -3 -10 -7 1 -5 0 -11 -1 -15 -1
-5 -4 -12 -5 -18 -1 -5 -4 -12 -5 -15 -1 -3 -4 -9 -5 -15 -1 -5 -4 -12 -5 -15
-1 -3 -4 -9 -5 -15 -1 -5 -4 -12 -5 -15 -1 -3 -4 -9 -5 -15 -1 -5 -4 -12 -5
-15 -1 -3 -4 -9 -5 -15 -1 -5 -4 -12 -5 -15 -1 -3 -4 -9 -5 -15 -1 -5 -4 -12
-5 -15 -1 -3 -4 -9 -5 -15 -1 -5 -4 -12 -5 -15 -1 -3 -4 -9 -5 -15 -1 -5 -4
-12 -5 -15 -1 -3 -4 -9 -5 -15 -1 -5 -4 -12 -5 -15 -1 -3 -4 -9 -5 -15 -1 -5
-4 -12 -5 -15 -1 -3 -4 -9 -5 -15 -1 -5 -4 -12 -5 -15 -1 -3 -4 -9 -5 -15 -1
-5 -4 -12 -5 -15 -1 -3 -4 -9 -5 -15 -1 -5 -4 -12 -5 -15 -1 -3 -4 -9 -5 -15
-1 -5 -3 -11 -5 -12 -6 -8 -5 -46 1 -42 5 2 16 -7 25 -21 9 -14 22 -25 30 -25
7 0 21 -11 30 -25 9 -14 20 -23 24 -20 5 3 16 -5 25 -17 8 -13 20 -24 25 -24
6 -1 11 -3 13 -4 11 -12 50 -4 58 12 5 10 14 16 19 13 5 -3 14 4 20 15 6 11
15 18 20 15 5 -3 14 4 20 15 6 11 15 18 20 15 5 -3 14 4 20 15 6 11 17 20 25
20 18 0 19 12 3 28 -7 7 -8 12 -4 12 5 0 3 7 -4 15 -7 8 -9 15 -5 15 4 0 2 7
-5 15 -7 8 -9 15 -5 15 4 0 2 7 -5 15 -7 8 -9 15 -5 15 4 0 2 7 -5 15 -7 8 -9
15 -5 15 4 0 2 7 -5 15 -7 8 -9 15 -5 15 4 0 2 7 -5 15 -7 8 -9 15 -5 15 4 0
2 7 -5 15 -7 8 -9 15 -5 15 4 0 2 7 -5 15 -7 8 -9 15 -5 15 4 0 2 7 -5 15 -7
8 -9 15 -5 15 4 0 2 7 -5 15 -7 8 -9 15 -5 15 4 0 2 7 -5 15 -7 8 -9 15 -5 15
4 0 2 7 -5 15 -7 8 -9 15 -5 15 4 0 3 6 -2 13 -6 6 -23 49 -37 95 -15 45 -32
82 -37 82 -4 0 -6 -7 -3 -15z"/>
<path d="M3869 2905 c-1 -3 -3 -9 -4 -15 -1 -5 -4 -12 -5 -15 -1 -3 -4 -9 -5
-15 -1 -5 -4 -12 -5 -15 -1 -3 -4 -9 -5 -15 -1 -5 -4 -12 -5 -15 -1 -3 -4 -9
-5 -15 -1 -5 -4 -12 -5 -15 -1 -3 -4 -9 -5 -15 -1 -5 -4 -12 -5 -15 -1 -3 -4
-9 -5 -15 -1 -5 -4 -12 -5 -15 -1 -3 -4 -9 -5 -15 -1 -5 -4 -12 -5 -15 -1 -3
-4 -9 -5 -15 -1 -5 -4 -12 -5 -15 -11 -22 4 -70 20 -60 5 3 15 -4 23 -15 20
-29 74 -34 88 -9 5 11 14 17 19 14 5 -3 14 4 20 15 6 11 15 18 21 15 5 -4 9
-2 9 4 0 5 -5 13 -10 16 -6 4 -8 10 -5 15 3 5 1 11 -5 15 -6 4 -8 10 -5 15 3
5 1 11 -5 15 -6 4 -8 11 -5 16 4 5 1 9 -5 9 -7 0 -10 7 -6 15 3 8 1 15 -5 15
-6 0 -9 7 -5 15 3 8 1 15 -5 15 -6 0 -9 7 -5 15 3 8 1 15 -5 15 -6 0 -9 7 -5
15 3 8 1 15 -5 15 -6 0 -9 7 -5 15 3 8 1 15 -4 15 -6 0 -10 7 -10 15 0 14 -18
22 -21 10z"/>
<path d="M4669 2906 c-3 -15 -7 -26 -9 -31 -1 -3 -4 -9 -5 -15 -1 -5 -3 -11
-5 -12 -1 -2 -3 -10 -5 -18 -8 -42 -40 -130 -47 -130 -4 0 -5 -7 -2 -15 4 -8
1 -15 -5 -15 -6 0 -8 -7 -5 -15 4 -8 1 -15 -5 -15 -6 0 -11 -5 -11 -11 0 -5 5
-7 10 -4 6 3 13 -1 16 -9 3 -9 12 -16 20 -16 7 0 18 -9 24 -19 12 -23 69 -21
82 4 5 8 14 15 20 15 6 0 16 8 23 17 10 14 8 29 -11 85 -12 37 -20 68 -17 68
3 0 1 6 -5 13 -6 6 -11 15 -11 20 -1 4 -2 9 -2 12 -1 3 -3 10 -4 15 -1 6 -4
12 -5 15 -1 3 -4 10 -5 15 -1 6 -4 12 -5 15 -1 3 -3 10 -4 17 -1 12 -25 24
-27 14z"/>
<path d="M3747 2554 c-3 -3 -3 -12 0 -20 3 -8 0 -14 -6 -14 -6 0 -8 -7 -5 -15
4 -8 1 -15 -5 -15 -6 0 -8 -7 -5 -15 4 -8 1 -15 -5 -15 -6 0 -8 -7 -5 -15 4
-8 1 -15 -5 -15 -6 0 -10 -3 -10 -7 1 -5 0 -11 -1 -15 -1 -5 -4 -12 -5 -18 -1
-5 -4 -12 -5 -15 -1 -3 -4 -9 -5 -15 -1 -5 -3 -11 -5 -12 -1 -2 -3 -11 -5 -21
-3 -16 6 -17 123 -15 115 3 127 5 124 21 -2 9 2 17 7 17 6 0 8 7 5 15 -4 8 -1
15 5 15 6 0 8 7 5 15 -4 8 -1 15 5 15 6 0 8 7 5 15 -4 8 -1 15 5 15 6 0 8 7 5
15 -4 8 -1 15 7 15 7 0 9 3 6 7 -4 3 -2 12 4 20 6 7 10 13 8 14 -31 6 -38 5
-43 -7 -3 -8 -12 -14 -20 -14 -7 0 -16 -6 -19 -14 -8 -20 -46 -16 -58 6 -6 10
-14 16 -19 13 -5 -3 -14 4 -20 15 -6 11 -15 18 -20 15 -5 -3 -15 4 -23 15 -7
11 -16 17 -20 14z"/>
<path d="M4790 2541 c-6 -12 -15 -19 -20 -16 -5 3 -14 -4 -20 -15 -6 -11 -17
-20 -25 -20 -7 0 -15 -5 -17 -12 -6 -18 -48 -20 -54 -3 -4 8 -13 15 -20 15 -8
0 -17 7 -20 15 -9 23 -26 18 -19 -6 4 -12 9 -29 10 -38 2 -9 4 -17 5 -18 2 -2
4 -7 5 -13 1 -5 4 -12 5 -15 1 -3 4 -9 5 -15 1 -5 4 -12 5 -15 1 -3 4 -9 5
-15 1 -5 4 -12 5 -15 3 -6 7 -22 9 -35 1 -6 48 -10 120 -10 108 0 119 2 116
18 -2 9 -4 18 -5 20 -2 1 -4 7 -5 12 -1 6 -4 12 -5 15 -1 3 -4 10 -5 15 -1 6
-4 12 -5 15 -1 3 -4 10 -5 15 -1 6 -4 12 -5 15 -1 3 -4 10 -5 15 -1 6 -4 12
-5 15 -1 3 -4 10 -5 15 -1 6 -4 12 -5 15 -1 3 -4 10 -5 15 -1 6 -4 12 -5 15
-1 3 -3 9 -4 14 -3 21 -15 21 -26 2z"/>
<path d="M4042 2465 c4 -5 3 -14 -3 -22 -6 -7 -8 -13 -4 -13 4 0 2 -7 -5 -15
-7 -8 -9 -15 -5 -15 4 0 2 -7 -5 -15 -7 -8 -9 -15 -5 -15 4 0 2 -7 -5 -15 -7
-8 -9 -15 -4 -15 4 0 3 -5 -3 -11 -6 -6 -9 -18 -6 -25 3 -8 0 -14 -7 -14 -6 0
-9 -4 -5 -9 3 -5 1 -12 -4 -16 -6 -3 -8 -12 -4 -20 3 -8 0 -15 -6 -15 -6 0 -8
-7 -5 -15 4 -8 1 -15 -5 -15 -6 0 -8 -7 -5 -15 4 -8 1 -15 -5 -15 -6 0 -8 -7
-5 -15 4 -8 1 -15 -6 -15 -6 0 -8 -5 -4 -11 3 -6 0 -15 -7 -20 -8 -6 130 -8
343 -7 315 3 386 7 348 20 -5 2 -11 14 -14 28 -2 14 -5 26 -7 28 -1 1 -3 7 -4
12 -1 6 -4 12 -5 15 -1 3 -4 10 -5 15 -1 6 -4 12 -5 15 -1 3 -4 10 -5 15 -1 6
-4 12 -5 15 -1 3 -4 10 -5 15 -1 6 -4 12 -5 15 -1 3 -4 10 -5 15 -1 6 -4 12
-5 15 -1 3 -4 10 -5 15 -1 6 -4 12 -5 15 -1 3 -4 10 -5 15 -1 6 -4 12 -5 15
-1 3 -4 10 -5 15 -1 6 -4 12 -5 15 -1 3 -4 10 -5 15 -1 6 -4 13 -5 18 -1 4 -2
10 -2 13 2 13 -37 -3 -42 -17 -3 -8 -12 -14 -20 -14 -7 0 -16 -7 -20 -15 -3
-8 -12 -15 -20 -15 -7 0 -16 -7 -20 -15 -3 -8 -12 -15 -21 -15 -8 0 -15 -5
-15 -10 0 -6 -8 -14 -17 -17 -9 -4 -25 -15 -37 -27 l-20 -20 -14 22 c-8 12
-20 22 -28 22 -7 0 -18 9 -24 20 -6 11 -17 20 -25 20 -8 0 -20 9 -27 20 -7 11
-18 20 -25 20 -6 0 -18 9 -25 19 -8 11 -27 23 -43 27 -17 4 -27 3 -23 -1z"/>
<path d="M5532 2377 l-62 -62 135 3 c75 2 143 -1 152 -7 19 -10 24 -49 9 -66
-5 -6 -64 -9 -150 -7 l-141 3 70 -70 c48 -49 71 -67 77 -58 4 6 8 9 8 4 0 -4
10 -1 23 8 13 8 27 12 30 8 4 -3 7 -1 7 5 0 7 3 11 8 10 4 -1 17 3 28 10 12 6
24 8 28 5 3 -3 6 -1 6 5 0 7 3 11 8 10 4 -1 17 3 28 10 12 6 24 8 28 5 3 -3 6
-1 6 5 0 7 3 11 8 10 4 -1 17 3 28 10 12 6 24 8 28 5 3 -3 6 -1 6 5 0 7 3 11
8 10 4 -1 17 3 28 10 12 6 24 8 28 5 3 -3 6 -1 6 6 0 7 4 10 9 6 5 -3 13 0 17
6 4 8 3 9 -4 5 -7 -4 -12 -2 -12 4 0 6 -4 8 -10 5 -5 -3 -10 -2 -10 2 0 5 -10
10 -22 10 -13 1 -24 7 -26 13 -2 5 -8 8 -13 4 -5 -3 -9 0 -9 7 0 7 -3 9 -6 6
-4 -3 -16 -1 -28 5 -11 7 -24 11 -28 10 -5 -1 -8 2 -8 6 0 4 -10 9 -22 9 -13
1 -24 7 -26 13 -2 5 -8 8 -13 4 -5 -3 -9 0 -9 7 0 7 -3 9 -6 6 -4 -3 -16 -1
-28 5 -11 7 -24 11 -28 10 -5 -1 -8 3 -8 10 0 6 -3 8 -6 5 -4 -3 -16 -1 -28 5
-40 22 -52 17 -114 -45z"/>
<path d="M5700 1298 c0 -5 -4 -7 -9 -4 -11 7 -33 -18 -24 -27 3 -4 1 -7 -5 -7
-7 0 -11 -3 -11 -7 1 -5 0 -10 -1 -13 -7 -16 -6 -71 1 -76 5 -3 7 -10 4 -15
-4 -5 -1 -9 6 -9 7 0 9 -3 6 -7 -9 -9 13 -34 24 -27 5 3 9 1 9 -3 0 -13 76 -9
92 5 8 6 17 10 19 8 2 -2 4 35 4 84 0 49 -2 86 -4 84 -2 -2 -10 1 -16 6 -16
14 -95 20 -95 8z"/>
<path d="M3788 1293 c-6 -7 -13 -11 -17 -9 -3 2 -5 -33 -3 -79 3 -60 8 -87 19
-96 17 -15 93 -20 93 -6 0 4 4 6 9 3 5 -3 14 1 21 9 7 8 9 15 5 15 -4 0 -1 10
7 23 12 18 16 66 8 87 -1 3 -2 8 -1 13 0 4 -4 7 -10 7 -5 0 -8 4 -5 9 7 11
-18 33 -27 24 -4 -3 -7 -2 -7 3 0 14 -80 11 -92 -3z"/>
</g>
</svg>
